<?xml version="1.0" encoding="UTF-8"?>
<svg xmlns="http://www.w3.org/2000/svg" xmlns:xlink="http://www.w3.org/1999/xlink" width="32pt" height="32pt" viewBox="0 0 32 32" version="1.1">
<g id="surface57646">
<rect x="0" y="0" width="32" height="32" style="fill:rgb(94.509804%,45.098039%,41.568627%);fill-opacity:1;stroke:none;"/>
<path style=" stroke:none;fill-rule:nonzero;fill:rgb(0%,0%,0%);fill-opacity:1;" d="M 22.398438 3.839844 C 21.902344 3.839844 21.421875 3.890625 20.960938 3.972656 C 20.613281 4.03125 20.378906 4.363281 20.441406 4.710938 C 20.5 5.0625 20.832031 5.296875 21.179688 5.234375 C 21.585938 5.164062 21.988281 5.121094 22.398438 5.121094 C 26.296875 5.121094 29.441406 8.265625 29.441406 12.160156 C 29.441406 13.003906 29.285156 13.808594 29.011719 14.5625 C 28.925781 14.78125 28.960938 15.023438 29.109375 15.203125 C 29.261719 15.386719 29.492188 15.46875 29.722656 15.425781 C 29.953125 15.386719 30.140625 15.21875 30.210938 15 C 30.535156 14.113281 30.71875 13.164062 30.71875 12.160156 C 30.71875 7.574219 26.988281 3.839844 22.398438 3.839844 Z M 22.398438 7.679688 C 22.128906 7.679688 21.871094 7.707031 21.625 7.75 C 21.277344 7.8125 21.042969 8.140625 21.105469 8.492188 C 21.164062 8.839844 21.496094 9.074219 21.84375 9.011719 C 22.03125 8.980469 22.21875 8.960938 22.398438 8.960938 C 24.175781 8.960938 25.601562 10.386719 25.601562 12.160156 C 25.601562 12.542969 25.53125 12.90625 25.402344 13.253906 C 25.28125 13.585938 25.453125 13.953125 25.789062 14.074219 C 26.121094 14.191406 26.488281 14.023438 26.609375 13.691406 C 26.78125 13.214844 26.878906 12.699219 26.878906 12.160156 C 26.878906 9.691406 24.867188 7.679688 22.398438 7.679688 Z M 13.550781 7.941406 C 11.496094 7.898438 8.398438 9.523438 5.636719 12.234375 C 2.886719 14.980469 1.28125 17.859375 1.28125 20.339844 C 1.28125 25.160156 7.441406 28.039062 13.539062 28.039062 C 21.441406 28.039062 26.730469 23.488281 26.730469 19.871094 C 26.730469 17.660156 24.855469 16.453125 23.179688 15.917969 C 22.78125 15.78125 22.511719 15.71875 22.710938 15.179688 C 22.84375 14.859375 23.039062 14.25 23.039062 13.441406 C 23.039062 12.519531 22.398438 11.722656 21.121094 11.578125 C 20.484375 11.511719 17.921875 11.519531 16.21875 12.234375 C 16.21875 12.234375 15.277344 12.636719 15.546875 11.898438 C 16.015625 10.425781 15.949219 9.21875 15.210938 8.550781 C 14.808594 8.148438 14.238281 7.953125 13.550781 7.941406 Z M 13 15.316406 C 17.996094 15.316406 22.042969 17.863281 22.042969 21.011719 C 22.042969 24.152344 17.996094 26.699219 13 26.699219 C 8.007812 26.699219 3.960938 24.152344 3.960938 21.011719 C 3.960938 17.863281 8.007812 15.316406 13 15.316406 Z M 12.328125 16.65625 C 10.398438 16.671875 8.519531 17.726562 7.703125 19.359375 C 6.699219 21.429688 7.636719 23.707031 10.046875 24.441406 C 12.457031 25.246094 15.335938 24.039062 16.339844 21.832031 C 17.34375 19.691406 16.074219 17.417969 13.664062 16.816406 C 13.222656 16.703125 12.773438 16.652344 12.328125 16.65625 Z M 13.328125 19.359375 C 13.699219 19.359375 13.996094 19.65625 13.996094 20.027344 C 13.996094 20.398438 13.699219 20.699219 13.328125 20.699219 C 12.957031 20.699219 12.65625 20.398438 12.65625 20.027344 C 12.65625 19.65625 12.957031 19.359375 13.328125 19.359375 Z M 10.507812 20.027344 C 10.71875 20.03125 10.925781 20.0625 11.125 20.128906 C 11.984375 20.402344 12.246094 21.214844 11.71875 21.890625 C 11.257812 22.570312 10.203125 22.90625 9.414062 22.570312 C 8.625 22.234375 8.425781 21.417969 8.886719 20.808594 C 9.234375 20.300781 9.875 20.019531 10.507812 20.027344 Z M 10.507812 20.027344 "/>
</g>
</svg>
